<svg width="23" height="23" viewBox="0 0 23 23" fill="none" xmlns="http://www.w3.org/2000/svg">
<g filter="url(#filter0_d_744_13)">
<path d="M18.3604 16.7022C18.5805 16.9224 18.7042 17.221 18.7042 17.5323C18.7042 17.8436 18.5805 18.1422 18.3604 18.3624C18.1402 18.5825 17.8416 18.7062 17.5303 18.7062C17.219 18.7062 16.9204 18.5825 16.7002 18.3624L10.5 12.1602L4.29787 18.3604C4.07772 18.5806 3.77913 18.7043 3.46779 18.7043C3.15645 18.7043 2.85786 18.5806 2.63771 18.3604C2.41756 18.1403 2.29388 17.8417 2.29388 17.5304C2.29388 17.219 2.41756 16.9204 2.63771 16.7003L8.8399 10.5001L2.63967 4.29793C2.41952 4.07778 2.29584 3.77919 2.29584 3.46785C2.29584 3.15651 2.41952 2.85793 2.63967 2.63777C2.85982 2.41762 3.15841 2.29395 3.46974 2.29395C3.78108 2.29395 4.07967 2.41762 4.29982 2.63777L10.5 8.8399L16.7022 2.6368C16.9223 2.41665 17.2209 2.29297 17.5322 2.29297C17.8436 2.29297 18.1422 2.41665 18.3623 2.6368C18.5825 2.85695 18.7062 3.15554 18.7062 3.46688C18.7062 3.77822 18.5825 4.0768 18.3623 4.29695L12.1602 10.5001L18.3604 16.7022Z" fill="#ABABAB"/>
</g>
<defs>
<filter id="filter0_d_744_13" x="0.293884" y="0.292969" width="24.4123" height="24.4133" filterUnits="userSpaceOnUse" color-interpolation-filters="sRGB">
<feFlood flood-opacity="0" result="BackgroundImageFix"/>
<feColorMatrix in="SourceAlpha" type="matrix" values="0 0 0 0 0 0 0 0 0 0 0 0 0 0 0 0 0 0 127 0" result="hardAlpha"/>
<feOffset dx="2" dy="2"/>
<feGaussianBlur stdDeviation="2"/>
<feComposite in2="hardAlpha" operator="out"/>
<feColorMatrix type="matrix" values="0 0 0 0 1 0 0 0 0 1 0 0 0 0 1 0 0 0 0.35 0"/>
<feBlend mode="normal" in2="BackgroundImageFix" result="effect1_dropShadow_744_13"/>
<feBlend mode="normal" in="SourceGraphic" in2="effect1_dropShadow_744_13" result="shape"/>
</filter>
</defs>
</svg>
